<svg width="32" height="32" viewBox="0 0 32 32" fill="none" xmlns="http://www.w3.org/2000/svg">
<path d="M16 4.00001C18.2053 4.00001 20 5.79467 20 8.00001L20 14.352C21.524 12.9867 24.0333 13.0467 25.4947 14.5053C26.2439 15.2558 26.6647 16.2729 26.6647 17.3333C26.6647 18.3938 26.2439 19.4109 25.4947 20.1613L16 29.656L6.50533 20.1613C5.7561 19.4109 5.33528 18.3938 5.33528 17.3333C5.33528 16.2729 5.7561 15.2558 6.50533 14.5053C7.96399 13.0453 10.4773 12.9853 12 14.352V8.00001C12 5.79467 13.7947 4.00001 16 4.00001ZM17.3333 20.7813V8.00001C17.318 7.6567 17.1708 7.33255 16.9224 7.09504C16.6741 6.85753 16.3436 6.72498 16 6.72498C15.6563 6.72498 15.3259 6.85753 15.0776 7.09504C14.8292 7.33255 14.682 7.6567 14.6667 8.00001V20.7813L10.276 16.3907C10.0222 16.148 9.68452 16.0125 9.33333 16.0125C8.98214 16.0125 8.64448 16.148 8.39066 16.3907C8.26673 16.5144 8.16842 16.6613 8.10134 16.8231C8.03426 16.9848 7.99973 17.1582 7.99973 17.3333C7.99973 17.5085 8.03426 17.6818 8.10134 17.8436C8.16842 18.0054 8.26673 18.1523 8.39066 18.276L16 25.8853L23.6093 18.276C23.7333 18.1523 23.8316 18.0054 23.8987 17.8436C23.9657 17.6818 24.0003 17.5085 24.0003 17.3333C24.0003 17.1582 23.9657 16.9848 23.8987 16.8231C23.8316 16.6613 23.7333 16.5144 23.6093 16.3907C23.3555 16.148 23.0178 16.0125 22.6667 16.0125C22.3155 16.0125 21.9778 16.148 21.724 16.3907L17.3333 20.7813Z" fill="#3D4966" fill-opacity="0.75"/>
</svg>
