<svg width="32" height="32" viewBox="0 0 32 32" fill="none" xmlns="http://www.w3.org/2000/svg">
<path d="M16 2C8.2 2 2 8.2 2 16C2 23.8 8.2 30 16 30C23.8 30 30 23.8 30 16C30 8.2 23.8 2 16 2ZM16 28C9.4 28 4 22.6 4 16C4 9.4 9.4 4 16 4C22.6 4 28 9.4 28 16C28 22.6 22.6 28 16 28Z" fill="#100B07"/>
<mask id="path-2-inside-1_216_1849" fill="white">
<path d="M21.4 23L16 17.6L10.6 23L9 21.4L14.4 16L9 10.6L10.6 9L16 14.4L21.4 9L23 10.6L17.6 16L23 21.4L21.4 23Z"/>
</mask>
<path d="M21.4 23L16 17.6L10.6 23L9 21.4L14.4 16L9 10.6L10.6 9L16 14.4L21.4 9L23 10.6L17.6 16L23 21.4L21.4 23Z" fill="#100B07"/>
<path d="M21.4 23L19.2787 25.1213L21.4 27.2426L23.5213 25.1213L21.4 23ZM16 17.6L18.1213 15.4787L16 13.3574L13.8787 15.4787L16 17.6ZM10.6 23L8.47868 25.1213L10.6 27.2426L12.7213 25.1213L10.6 23ZM9 21.4L6.87868 19.2787L4.75736 21.4L6.87868 23.5213L9 21.4ZM14.4 16L16.5213 18.1213L18.6426 16L16.5213 13.8787L14.4 16ZM9 10.6L6.87868 8.47868L4.75736 10.6L6.87868 12.7213L9 10.6ZM10.6 9L12.7213 6.87868L10.6 4.75736L8.47868 6.87868L10.6 9ZM16 14.4L13.8787 16.5213L16 18.6426L18.1213 16.5213L16 14.4ZM21.4 9L23.5213 6.87868L21.4 4.75736L19.2787 6.87868L21.4 9ZM23 10.6L25.1213 12.7213L27.2426 10.6L25.1213 8.47868L23 10.6ZM17.6 16L15.4787 13.8787L13.3574 16L15.4787 18.1213L17.6 16ZM23 21.4L25.1213 23.5213L27.2426 21.4L25.1213 19.2787L23 21.4ZM23.5213 20.8787L18.1213 15.4787L13.8787 19.7213L19.2787 25.1213L23.5213 20.8787ZM13.8787 15.4787L8.47868 20.8787L12.7213 25.1213L18.1213 19.7213L13.8787 15.4787ZM12.7213 20.8787L11.1213 19.2787L6.87868 23.5213L8.47868 25.1213L12.7213 20.8787ZM11.1213 23.5213L16.5213 18.1213L12.2787 13.8787L6.87868 19.2787L11.1213 23.5213ZM16.5213 13.8787L11.1213 8.47868L6.87868 12.7213L12.2787 18.1213L16.5213 13.8787ZM11.1213 12.7213L12.7213 11.1213L8.47868 6.87868L6.87868 8.47868L11.1213 12.7213ZM8.47868 11.1213L13.8787 16.5213L18.1213 12.2787L12.7213 6.87868L8.47868 11.1213ZM18.1213 16.5213L23.5213 11.1213L19.2787 6.87868L13.8787 12.2787L18.1213 16.5213ZM19.2787 11.1213L20.8787 12.7213L25.1213 8.47868L23.5213 6.87868L19.2787 11.1213ZM20.8787 8.47868L15.4787 13.8787L19.7213 18.1213L25.1213 12.7213L20.8787 8.47868ZM15.4787 18.1213L20.8787 23.5213L25.1213 19.2787L19.7213 13.8787L15.4787 18.1213ZM20.8787 19.2787L19.2787 20.8787L23.5213 25.1213L25.1213 23.5213L20.8787 19.2787Z" fill="#100B07" mask="url(#path-2-inside-1_216_1849)"/>
</svg>
