<svg width="32" height="32" viewBox="0 0 32 32" fill="none" xmlns="http://www.w3.org/2000/svg">
<g clip-path="url(#clip0_631_12)">
<path d="M32 16C32 7.16344 24.8366 0 16 0C7.16344 0 0 7.16344 0 16C0 24.8366 7.16344 32 16 32C24.8366 32 32 24.8366 32 16Z" fill="#675DA9"/>
<path d="M23.8357 8.12302C23.3064 7.63649 21.1638 6.07857 16.3876 6.05723C16.3876 6.05723 10.7578 5.71577 8.01336 8.23402C6.48532 9.76202 5.94752 11.9944 5.89204 14.7687C5.83655 17.5388 5.76399 22.7332 10.7706 24.1417H10.7749L10.7706 26.2886C10.7706 26.2886 10.7408 27.1594 11.3127 27.3344C12.0042 27.5478 12.4139 26.8862 13.0755 26.1734C13.4383 25.7807 13.9376 25.2088 14.3175 24.7692C17.7406 25.0551 20.3742 24.3978 20.6729 24.2996C21.3644 24.0734 25.2784 23.574 25.9143 18.3796C26.5716 13.0358 25.5942 9.65109 23.8357 8.12302ZM24.4162 18.004C23.8784 22.3405 20.707 22.6137 20.1223 22.8015C19.8748 22.8826 17.5614 23.4588 14.6504 23.2667C14.6504 23.2667 12.4822 25.8832 11.8078 26.5618C11.7011 26.6685 11.5773 26.7112 11.4962 26.6898C11.381 26.66 11.3468 26.5234 11.3511 26.3228C11.3511 26.0326 11.3682 22.7503 11.3682 22.7503C11.3639 22.7503 11.3639 22.7503 11.3682 22.7503C7.12982 21.5765 7.37736 17.1546 7.42436 14.8412C7.47129 12.5279 7.90662 10.6285 9.19989 9.35229C11.5176 7.25235 16.3022 7.56389 16.3022 7.56389C20.34 7.58095 22.2735 8.79742 22.7217 9.20289C24.2113 10.4834 24.971 13.5352 24.4162 18.004Z" fill="white"/>
<path d="M18.3553 14.9223C18.2144 14.9223 18.0949 14.8113 18.0864 14.6662C18.0394 13.7485 17.6084 13.3004 16.7291 13.2534C16.5797 13.2449 16.4644 13.1168 16.473 12.9674C16.4815 12.818 16.6096 12.7028 16.759 12.7114C17.9199 12.7754 18.5687 13.4412 18.6284 14.6363C18.637 14.7857 18.5218 14.9138 18.3724 14.918C18.3638 14.9223 18.3596 14.9223 18.3553 14.9223Z" fill="white"/>
<path d="M19.7382 15.3834H19.7339C19.5845 15.3791 19.4651 15.2554 19.4693 15.106C19.4907 14.184 19.226 13.4371 18.6626 12.8224C18.1035 12.2078 17.3309 11.8749 16.3108 11.8024C16.1614 11.7896 16.0505 11.6615 16.0633 11.5121C16.0761 11.3627 16.2041 11.2518 16.3535 11.2646C17.5059 11.3499 18.4151 11.7511 19.0638 12.4596C19.7169 13.1724 20.0327 14.0645 20.0114 15.1188C20.0071 15.2682 19.8833 15.3834 19.7382 15.3834Z" fill="white"/>
<path d="M21.1553 15.9382C21.0059 15.9382 20.8864 15.8187 20.8864 15.6693C20.8736 14.0175 20.3998 12.7584 19.4352 11.8151C18.4834 10.8846 17.2755 10.4108 15.8542 10.398C15.7048 10.398 15.5853 10.2743 15.5853 10.1249C15.5853 9.97549 15.7091 9.85596 15.8542 9.85596C17.4206 9.86876 18.7523 10.3938 19.8065 11.4267C20.8651 12.4596 21.4071 13.8852 21.4242 15.6608C21.4285 15.8144 21.3089 15.9382 21.1553 15.9382C21.1596 15.9382 21.1596 15.9382 21.1553 15.9382ZM16.7932 18.2643C16.7932 18.2643 17.1731 18.2985 17.3779 18.0466L17.7749 17.5473C17.9669 17.2997 18.4322 17.1418 18.8846 17.3936C19.1365 17.5344 19.5931 17.8162 19.8749 18.0253C20.1779 18.2472 20.7925 18.7594 20.7968 18.7637C21.0913 19.0113 21.1596 19.3741 20.959 19.7625C20.959 19.7625 20.959 19.7668 20.959 19.771C20.7541 20.1338 20.4767 20.4753 20.1309 20.7911C20.1267 20.7911 20.1267 20.7954 20.1224 20.7954C19.8364 21.0344 19.5547 21.171 19.2815 21.2009C19.2474 21.2094 19.209 21.2094 19.1578 21.2094C19.0383 21.2094 18.9187 21.1924 18.7993 21.1539L18.7907 21.1411C18.3639 21.0216 17.6553 20.7228 16.4773 20.0698C15.7091 19.6472 15.0731 19.2162 14.531 18.785C14.2451 18.5588 13.9548 18.307 13.6561 18.0082C13.6475 17.9997 13.6347 17.9869 13.6261 17.9784C13.6176 17.9698 13.6048 17.957 13.5963 17.9485C13.5877 17.94 13.5749 17.9272 13.5664 17.9186C13.5579 17.9101 13.5451 17.8972 13.5365 17.8887C13.242 17.59 12.9859 17.2997 12.7597 17.0138C12.3286 16.476 11.8975 15.8357 11.475 15.0674C10.8219 13.8851 10.5231 13.1766 10.4037 12.754L10.3909 12.7455C10.3524 12.626 10.3353 12.5065 10.3353 12.387C10.3353 12.3358 10.3353 12.2974 10.3439 12.2632C10.3781 11.9858 10.5146 11.7083 10.7494 11.4224C10.7494 11.4181 10.7537 11.4181 10.7537 11.4138C11.0695 11.0638 11.4109 10.7906 11.7737 10.5858C11.7737 10.5858 11.778 10.5858 11.7823 10.5858C12.1664 10.3852 12.5292 10.4535 12.7811 10.748C12.7811 10.748 13.2975 11.3669 13.5195 11.6699C13.7286 11.9559 14.0103 12.4083 14.1511 12.6602C14.403 13.1126 14.2451 13.5778 13.9975 13.7699L13.4981 14.1668C13.2463 14.3717 13.2804 14.7516 13.2804 14.7516C13.2804 14.7516 14.0189 17.5601 16.7932 18.2643Z" fill="white"/>
</g>
<defs>
<clipPath id="clip0_631_12">
<rect width="32" height="32" fill="white"/>
</clipPath>
</defs>
</svg>
