<svg width="40" height="40" viewBox="0 0 40 40" fill="none" xmlns="http://www.w3.org/2000/svg">
<path d="M13.3334 11.6384C12.8914 11.6384 12.4675 11.814 12.1549 12.1266C11.8423 12.4391 11.6667 12.8631 11.6667 13.3051C11.6667 13.7471 11.8423 14.171 12.1549 14.4836C12.4675 14.7962 12.8914 14.9718 13.3334 14.9718H26.6667C27.1088 14.9718 27.5327 14.7962 27.8453 14.4836C28.1578 14.171 28.3334 13.7471 28.3334 13.3051C28.3334 12.8631 28.1578 12.4391 27.8453 12.1266C27.5327 11.814 27.1088 11.6384 26.6667 11.6384H13.3334ZM11.6667 20.0001C11.6667 19.5581 11.8423 19.1341 12.1549 18.8216C12.4675 18.509 12.8914 18.3334 13.3334 18.3334H26.6667C27.1088 18.3334 27.5327 18.509 27.8453 18.8216C28.1578 19.1341 28.3334 19.5581 28.3334 20.0001C28.3334 20.4421 28.1578 20.866 27.8453 21.1786C27.5327 21.4912 27.1088 21.6668 26.6667 21.6668H13.3334C12.8914 21.6668 12.4675 21.4912 12.1549 21.1786C11.8423 20.866 11.6667 20.4421 11.6667 20.0001ZM13.3334 25.0284C12.8914 25.0284 12.4675 25.204 12.1549 25.5166C11.8423 25.8291 11.6667 26.2531 11.6667 26.6951C11.6667 27.1371 11.8423 27.561 12.1549 27.8736C12.4675 28.1862 12.8914 28.3618 13.3334 28.3618H26.6667C27.1088 28.3618 27.5327 28.1862 27.8453 27.8736C28.1578 27.561 28.3334 27.1371 28.3334 26.6951C28.3334 26.2531 28.1578 25.8291 27.8453 25.5166C27.5327 25.204 27.1088 25.0284 26.6667 25.0284H13.3334Z" fill="#E1F4FA"/>
<path fill-rule="evenodd" clip-rule="evenodd" d="M36.6667 20C36.6667 29.205 29.205 36.6667 20 36.6667C10.795 36.6667 3.33337 29.205 3.33337 20C3.33337 10.795 10.795 3.33337 20 3.33337C29.205 3.33337 36.6667 10.795 36.6667 20ZM33.3334 20C33.3334 23.5363 31.9286 26.9276 29.4281 29.4281C26.9276 31.9286 23.5363 33.3334 20 33.3334C16.4638 33.3334 13.0724 31.9286 10.572 29.4281C8.07147 26.9276 6.66671 23.5363 6.66671 20C6.66671 16.4638 8.07147 13.0724 10.572 10.572C13.0724 8.07147 16.4638 6.66671 20 6.66671C23.5363 6.66671 26.9276 8.07147 29.4281 10.572C31.9286 13.0724 33.3334 16.4638 33.3334 20Z" fill="#E1F4FA"/>
</svg>
